<svg xmlns="http://www.w3.org/2000/svg" width="32" height="32" fill="none" role="figure" viewbox="0 0 32 32"><path fill="#34489B" d="M10.704 22.474 4.65 11.314 0 16l4.65 4.686 6.054 1.788Z"></path><path fill="#EA1E45" d="M11.224 4.686 9.45 10.79l11.072-6.104L15.872 0l-4.648 4.686Z"></path><path fill="#C43E95" d="M11.224 4.686H4.649v6.628l3.028 5.58 3.547-12.208Z"></path><path fill="#048AC4" d="M4.65 20.686v6.627h6.574l5.536-3.051-12.11-3.576Z"></path><path fill="#6DC8C4" d="M11.225 27.313 15.873 32l4.65-4.687 1.773-6.104-11.071 6.104Z"></path><path fill="#B7D334" d="M20.523 27.313h6.574v-6.627l-3.027-5.58-3.547 12.207Z"></path><path fill="#F3E912" d="m27.097 11.314-6.055-1.788 6.055 11.16 4.65-4.687-4.65-4.685Z"></path><path fill="#F9AC1F" d="m20.522 4.686-5.536 3.052 12.11 3.576V4.686h-6.574Z"></path></svg>